<?xml version="1.0" encoding="iso-8859-1"?>
<!-- Uploaded to: SVG Repo, www.svgrepo.com, Generator: SVG Repo Mixer Tools -->
<svg height="800px" width="800px" version="1.1" id="Layer_1" xmlns="http://www.w3.org/2000/svg" xmlns:xlink="http://www.w3.org/1999/xlink" 
	 viewBox="0 0 300.438 300.438" xml:space="preserve">
<g>
	<path style="fill:#51BBA8;" d="M18.777,28.166h262.884c10.365,0,18.777,8.412,18.777,18.777v206.552
		c0,10.375-8.412,18.777-18.777,18.777H18.777C8.412,272.272,0,263.87,0,253.495V46.944C0,36.578,8.412,28.166,18.777,28.166z"/>
	<path style="fill:#EBEBEB;" d="M272.272,46.944H28.166c-5.07,0-9.389,4.6-9.389,9.398v187.765c0,3.981,3.831,9.389,9.389,9.389
		h244.106c4.638,0,9.389-4.281,9.389-9.389V56.342C281.661,51.572,277.117,46.944,272.272,46.944z M140.831,176.733
		c-10.957-3.878-18.853-14.233-18.853-26.514c0-12.28,7.896-22.627,18.853-26.504V176.733z M159.608,123.715
		c10.957,3.878,18.853,14.224,18.853,26.504s-7.896,22.636-18.853,26.514V123.715z M46.944,234.718
		c-5.192,0-9.389-4.197-9.389-9.389V75.11c0-5.183,4.197-9.389,9.389-9.389h93.887v38.503
		c-21.425,4.356-37.555,23.293-37.555,45.995c0,22.711,16.13,41.648,37.555,45.986v38.512H46.944V234.718z M262.884,225.329
		c0,5.192-4.197,9.389-9.389,9.389h-93.887v-38.512c21.425-4.347,37.555-23.275,37.555-45.986c0-22.702-16.13-41.648-37.555-45.995
		V65.721h93.887c5.192,0,9.389,4.206,9.389,9.389V225.329z"/>
</g>
</svg>