<?xml version="1.0" encoding="utf-8"?>
<!-- Generator: Adobe Illustrator 21.1.0, SVG Export Plug-In . SVG Version: 6.00 Build 0)  -->
<svg version="1.1" id="Layer_1" xmlns="http://www.w3.org/2000/svg" xmlns:xlink="http://www.w3.org/1999/xlink" x="0px" y="0px"
	 viewBox="0 0 506.6274 175" style="enable-background:new 0 0 506.6274 175;" xml:space="preserve">
<style type="text/css">
	.st0{fill:#575756;}
	.st1{fill:#026BB0;}
	.st2{fill:#F5AA00;}
	.st3{fill:#E51D74;}
	.st4{fill:#78B517;}
</style>
<g>
	<g>
		<path class="st0" d="M276.4956,61.1013c-6.9829,0-13.3745,3.3906-16.8574,8.7876l-0.2632-7.6357h-6.1455l0.0615,0.7554
			c0.3008,3.8076,0.417,7.1675,0.417,11.9834v38.9067h6.4258V82.1082c0-1.5586,0.3281-3.2163,0.5947-4.2964
			c1.9892-6.4873,7.9126-11.0161,14.4033-11.0161c11.5049,0,13.2207,10.4487,13.2207,16.6763v30.4268h6.4258V83.0515
			C294.7783,62.1609,279.5478,61.1013,276.4956,61.1013z"/>
		<path class="st0" d="M338.3164,101.2659V81.5852c0-13.4019-6.2515-20.4839-18.0742-20.4839c-5.2944,0-10.958,1.6475-15.145,4.4092
			l-0.4888,0.3213l2.1431,5.0039l0.7075-0.5059c3.2847-2.3481,7.6392-3.6401,12.2671-3.6401c0.0581,0,0.1196,0,0.1812,0
			c3.6401,0,6.4907,0.9912,8.4663,2.9497c2.3652,2.3481,3.5171,5.9814,3.5171,11.1084v0.6562c-0.0684,0-0.1333,0-0.2017,0
			c-12.1099,0-20.7881,2.5122-25.7954,7.4717c-3.1001,3.0659-4.6724,6.9897-4.6724,11.6553c0,6.9932,4.8398,14.5195,15.4629,14.5195
			c7.3384,0,12.7866-3.6333,15.791-7.4238l0.6357,6.272h6.0635l-0.1333-0.8135
			C338.4018,109.1477,338.3164,104.8992,338.3164,101.2659z M317.207,109.4622c-4.5186,0-9.3481-2.5669-9.3481-9.7686
			c0-3.0864,1.0186-5.6396,3.0283-7.5913c3.5137-3.4146,10.0181-5.1406,19.356-5.1406c0.54,0,1.0903,0.0034,1.6475,0.0171v10.1001
			c0,0.728-0.082,1.8013-0.4854,2.8096C329.8296,104.5164,325.2734,109.4622,317.207,109.4622z"/>
		<path class="st0" d="M384.6128,69.3284c-2.2319-3.3633-7.0923-8.227-16.543-8.227c-11.5835,0-23.3105,9.4097-23.3105,27.395
			c0,14.4819,9.5703,25.4023,22.2612,25.4023c7.2666,0,13.4565-3.0386,16.9907-8.2339v4.915
			c0,13.0122-5.8926,19.6089-17.5137,19.6089c-5.4961,0-10.4043-1.3706-14.5879-4.0742l-0.6836-0.4443l-2.3447,5.2295l0.4443,0.335
			c3.6982,2.8027,9.9976,4.5425,16.4404,4.5425c3.3325,0,11.7168-0.6016,17.5444-6.1626
			c4.9287-4.6826,7.1265-12.0039,7.1265-23.7446V75.932c0-5.5439,0.123-9.4062,0.417-12.9199l0.0649-0.7588h-6.043L384.6128,69.3284
			z M368.2783,108.3103c-12.6157,0-17.0933-10.958-17.0933-20.3403c0-12.7285,6.9521-21.2803,17.3018-21.2803
			c6.9932,0,12.5747,4.0879,14.9365,10.9443c0.4888,1.3672,0.5879,2.8643,0.5879,4.686v10.0488c0,1.644-0.2837,3.4624-0.7964,5.0962
			C380.7915,104.1541,375.0698,108.3103,368.2783,108.3103z"/>
		<path class="st0" d="M452.914,91.2068c-1.7568,5.3662-3.1001,9.6694-4.0845,13.6001c-1.1929-4.2554-2.6147-8.7671-4.3203-13.7129
			l-9.7891-28.8408h-5.7114l-10.2163,29.0493c-1.5688,4.5527-3.1719,9.3003-4.4263,13.5898
			c-0.9331-3.6743-2.0303-7.5024-3.2642-11.8228l-8.979-30.314l-0.147-0.5024h-6.6001l15.7705,51.1499l0.1538,0.4956h5.4038
			l10.1069-28.3042c2.1362-5.8721,3.6812-10.6333,4.8843-15.0938c1.2407,4.7339,2.7925,9.4849,4.686,14.9741l9.6831,28.4238h5.3013
			l17.2129-51.6455h-6.6172L452.914,91.2068z"/>
		<path class="st0" d="M506.4941,113.0852c-0.6392-3.9375-0.7246-8.186-0.7246-11.8193V81.5852
			c0-13.4019-6.2515-20.4839-18.0742-20.4839c-5.2944,0-10.958,1.6475-15.145,4.4092l-0.4888,0.3213l2.1431,5.0039l0.7075-0.5059
			c3.2847-2.3481,7.6392-3.6401,12.2671-3.6401c0.0581,0,0.1196,0,0.1812,0c3.6401,0,6.4907,0.9912,8.4663,2.9497
			c2.3652,2.3481,3.5171,5.9814,3.5171,11.1084v0.6562c-0.0684,0-0.1333,0-0.2017,0c-12.1099,0-20.7881,2.5122-25.7954,7.4717
			c-3.1001,3.0659-4.6724,6.9897-4.6724,11.6553c0,6.9932,4.8398,14.5195,15.4629,14.5195c7.3384,0,12.7866-3.6333,15.791-7.4238
			l0.6357,6.272h6.0635L506.4941,113.0852z M484.6601,109.4622c-4.5186,0-9.3481-2.5669-9.3481-9.7686
			c0-3.0864,1.0186-5.6396,3.0283-7.5913c3.5137-3.4146,10.0181-5.1406,19.356-5.1406c0.54,0,1.0903,0.0034,1.6475,0.0171v10.1001
			c0,0.728-0.082,1.8013-0.4854,2.8096C497.2827,104.5164,492.7265,109.4622,484.6601,109.4622z"/>
	</g>
	<g>
		<polygon class="st1" points="0,145.8325 50.5153,175 50.5153,116.665 151.5569,175 151.5569,116.665 0,29.168 		"/>
		<polygon class="st2" points="50.5175,175 101.0328,145.8325 50.5175,116.665 		"/>
		<polygon class="st2" points="151.5574,0 101.0366,29.1675 151.5574,58.335 		"/>
		<polygon class="st3" points="151.5574,0 151.5574,58.335 50.5159,0 0.0005,29.1675 151.5574,116.6645 151.5574,174.9995 
			202.0727,145.832 202.0727,29.1675 		"/>
		<polygon class="st4" points="50.5175,0 0.0022,29.1675 50.5175,58.335 101.0328,29.1675 		"/>
	</g>
</g>
</svg>
